<svg id="Capa_1" data-name="Capa 1" xmlns="http://www.w3.org/2000/svg" viewBox="0 0 342.93 407.45"><defs><style>.cls-1{fill:#f4f2f7;}.cls-2{fill:#f6f4f9;}</style></defs><path class="cls-1" d="M255.1,116.51a8.13,8.13,0,1,0,0-16.25H143.49a8.13,8.13,0,1,0,0,16.25Z" transform="translate(-32.26)"/><path class="cls-2" d="M367.06,100.26H311.69a8.13,8.13,0,0,0,0,16.26h47.24V391.2H48.52V116.51H93.06a8.13,8.13,0,0,0,0-16.25H40.39a8.12,8.12,0,0,0-8.13,8.13V399.32a8.12,8.12,0,0,0,8.13,8.13H367.06a8.12,8.12,0,0,0,8.13-8.13V108.39A8.12,8.12,0,0,0,367.06,100.26Z" transform="translate(-32.26)"/><path class="cls-1" d="M282.59,134.8a8.13,8.13,0,0,0,8.13-8.13V67.39C290.72,30.24,250.6,0,201.1,0c-49.31,0-89.41,30.24-89.41,67.39v59.28a8.13,8.13,0,1,0,16.25,0V67.39c0-28.19,32.83-51.13,73.36-51.13,40.34,0,73.16,22.94,73.16,51.13v59.28A8.13,8.13,0,0,0,282.59,134.8Z" transform="translate(-32.26)"/><path class="cls-1" d="M98.89,147.57a20.93,20.93,0,0,0,41.85,0,8.13,8.13,0,0,0-16.26,0,4.67,4.67,0,0,1-9.33,0,8.13,8.13,0,0,0-16.26,0Z" transform="translate(-32.26)"/><path class="cls-1" d="M282.59,168.47a20.94,20.94,0,0,0,20.92-20.9,8.13,8.13,0,1,0-16.25,0,4.67,4.67,0,0,1-9.34,0,8.13,8.13,0,1,0-16.25,0A20.93,20.93,0,0,0,282.59,168.47Z" transform="translate(-32.26)"/></svg>