<svg id="svg" version="1.1" xmlns="http://www.w3.org/2000/svg" xmlns:xlink="http://www.w3.org/1999/xlink" width="400" height="400" viewBox="0, 0, 400,400"><g id="svgg"><path id="path0" d="M190.052 28.151 C 110.982 32.477,44.280 91.640,30.558 169.618 C 9.907 286.978,111.192 389.215,228.679 369.600 C 326.935 353.195,390.880 255.704,367.003 158.707 C 347.219 78.342,273.039 23.610,190.052 28.151 M220.056 39.713 C 334.974 55.328,397.252 180.390,339.919 280.412 C 281.537 382.265,137.040 389.176,68.288 293.405 C 53.566 272.899,41.905 243.183,39.944 221.178 C 39.825 219.839,39.455 216.046,39.123 212.749 C 36.018 181.937,44.164 146.153,60.608 118.370 C 87.980 72.124,133.582 43.701,188.191 38.848 C 193.428 38.383,214.468 38.954,220.056 39.713 M191.378 114.358 C 119.109 121.759,88.027 209.905,139.633 261.106 C 188.081 309.174,272.587 282.846,284.314 216.030 C 286.014 206.346,286.167 204.648,285.906 198.316 C 283.794 147.096,241.191 109.257,191.378 114.358 M208.445 125.229 C 270.958 132.956,297.391 208.705,253.048 253.048 C 213.554 292.542,146.239 276.535,128.567 223.449 C 111.410 171.907,154.767 118.594,208.445 125.229 M196.195 180.110 C 185.935 182.021,178.514 192.143,179.927 202.301 C 182.285 219.251,202.065 226.068,214.066 214.066 C 228.051 200.082,215.634 176.489,196.195 180.110 M137.207 205.961 C 137.207 211.561,141.089 223.813,145.142 231.002 C 166.244 268.436,219.322 273.844,247.338 241.415 C 256.004 231.384,260.219 221.739,262.614 206.463 L 262.776 205.428 246.796 205.526 L 230.817 205.623 230.120 208.167 C 221.533 239.519,176.324 238.255,169.286 206.467 L 169.058 205.436 153.133 205.436 C 139.729 205.436,137.207 205.519,137.207 205.961 " stroke="none" fill="#c7cccf" fill-rule="evenodd"></path><path id="path1" d="M188.379 16.910 C 82.785 23.557,4.812 117.915,18.006 223.084 C 28.358 305.599,93.762 371.243,176.129 381.787 C 291.735 396.587,391.485 302.038,382.786 185.905 C 375.308 86.068,288.500 10.608,188.379 16.910 M218.557 28.650 C 315.201 39.926,383.059 126.212,370.751 222.177 C 357.717 323.803,258.429 391.726,158.763 367.198 C 92.552 350.903,41.311 295.989,30.210 229.428 C 13.380 128.523,84.614 36.889,186.692 28.134 C 192.587 27.628,212.573 27.952,218.557 28.650 M188.941 39.023 C 103.240 45.054,36.166 118.307,38.701 203.103 C 38.917 210.328,38.511 209.662,42.179 208.809 C 61.066 204.417,107.146 196.439,113.626 196.439 C 113.812 196.439,113.964 195.688,113.964 194.771 C 113.964 173.671,127.560 147.349,146.017 132.713 C 199.380 90.399,278.081 123.105,285.539 190.696 L 286.167 196.386 288.069 196.625 C 309.997 199.378,350.153 206.482,360.305 209.404 C 361.128 209.640,361.413 202.639,360.981 192.803 C 357.008 102.430,278.984 32.687,188.941 39.023 M192.959 125.255 C 145.054 129.871,113.809 177.687,128.808 223.430 C 142.021 263.728,186.407 284.979,226.262 270.089 C 265.686 255.361,285.116 210.917,269.317 171.605 C 257.162 141.363,225.465 122.122,192.959 125.255 M210.122 137.719 C 238.401 142.874,259.230 164.664,262.583 192.600 L 262.820 194.572 246.832 194.475 L 230.845 194.377 229.947 191.268 C 221.014 160.322,175.937 162.005,169.276 193.533 L 169.058 194.564 153.084 194.564 L 137.110 194.564 137.369 192.221 C 141.218 157.433,175.868 131.475,210.122 137.719 M204.514 180.139 C 220.111 184.121,225.502 203.003,214.252 214.252 C 203.003 225.502,184.121 220.111,180.139 204.514 C 176.538 190.409,190.409 176.538,204.514 180.139 M169.597 206.976 C 170.844 214.772,177.799 223.667,185.693 227.562 C 203.717 236.454,225.151 227.049,230.031 208.108 L 230.719 205.436 246.799 205.436 L 262.879 205.436 262.620 207.591 C 256.550 257.994,195.871 280.732,157.797 246.872 C 146.737 237.035,137.207 218.481,137.207 206.783 L 137.207 205.436 153.279 205.436 L 169.351 205.436 169.597 206.976 M111.340 207.936 C 110.825 208.017,106.692 208.594,102.156 209.218 C 82.740 211.888,41.494 219.674,40.268 220.901 C 39.646 221.522,43.063 238.251,45.364 245.857 C 69.244 324.767,146.350 372.434,227.929 358.721 C 293.807 347.646,348.050 293.328,358.726 227.741 C 359.162 225.061,359.597 222.409,359.692 221.848 C 359.893 220.658,360.384 220.831,350.890 218.741 C 331.747 214.525,304.603 209.839,287.872 207.861 L 285.772 207.613 285.514 210.179 C 282.311 242.067,258.490 271.296,227.251 281.671 C 176.715 298.454,122.072 265.142,114.740 213.082 C 113.884 207.007,114.199 207.483,111.340 207.936 " stroke="none" fill="#09315a" fill-rule="evenodd"></path><path id="path2" d="M193.065 137.226 C 163.746 140.872,140.512 163.814,137.369 192.221 L 137.110 194.564 153.084 194.564 L 169.058 194.564 169.276 193.533 C 175.937 162.005,221.014 160.322,229.947 191.268 L 230.845 194.377 246.832 194.475 L 262.820 194.572 262.583 192.600 C 258.486 158.469,226.584 133.057,193.065 137.226 " stroke="none" fill="#eb0424" fill-rule="evenodd"></path><path id="path3" d="M191.463 28.012 C 192.129 28.095,193.309 28.096,194.087 28.015 C 194.865 27.934,194.321 27.866,192.877 27.864 C 191.434 27.863,190.798 27.929,191.463 28.012 M205.717 28.013 C 206.387 28.096,207.484 28.096,208.154 28.013 C 208.824 27.929,208.276 27.861,206.935 27.861 C 205.595 27.861,205.047 27.929,205.717 28.013 M185.661 28.375 C 186.022 28.469,186.612 28.469,186.973 28.375 C 187.334 28.280,187.038 28.203,186.317 28.203 C 185.595 28.203,185.300 28.280,185.661 28.375 M213.027 28.375 C 213.388 28.469,213.978 28.469,214.339 28.375 C 214.700 28.280,214.405 28.203,213.683 28.203 C 212.962 28.203,212.666 28.280,213.027 28.375 M190.539 38.882 C 191.109 38.968,191.953 38.966,192.414 38.877 C 192.875 38.788,192.409 38.717,191.378 38.720 C 190.347 38.723,189.970 38.796,190.539 38.882 M207.404 38.881 C 207.971 38.967,208.899 38.967,209.466 38.881 C 210.033 38.796,209.569 38.725,208.435 38.725 C 207.301 38.725,206.837 38.796,207.404 38.881 M185.286 39.246 C 185.647 39.341,186.237 39.341,186.598 39.246 C 186.959 39.152,186.664 39.075,185.942 39.075 C 185.220 39.075,184.925 39.152,185.286 39.246 M213.402 39.246 C 213.763 39.341,214.353 39.341,214.714 39.246 C 215.075 39.152,214.780 39.075,214.058 39.075 C 213.336 39.075,213.041 39.152,213.402 39.246 M84.512 72.071 L 83.411 73.290 84.630 72.189 C 85.765 71.162,86.020 70.853,85.731 70.853 C 85.666 70.853,85.118 71.401,84.512 72.071 M316.401 73.290 C 317.101 74.011,317.757 74.602,317.860 74.602 C 317.963 74.602,317.475 74.011,316.776 73.290 C 316.077 72.568,315.420 71.978,315.317 71.978 C 315.214 71.978,315.702 72.568,316.401 73.290 M77.976 78.163 C 76.440 79.709,75.267 80.975,75.370 80.975 C 75.473 80.975,76.814 79.709,78.351 78.163 C 79.887 76.617,81.059 75.351,80.956 75.351 C 80.853 75.351,79.512 76.617,77.976 78.163 M307.404 79.592 C 307.404 79.657,307.952 80.205,308.622 80.811 L 309.841 81.912 308.740 80.694 C 307.713 79.558,307.404 79.303,307.404 79.592 M325.398 82.217 C 325.398 82.281,325.947 82.829,326.617 83.435 L 327.835 84.536 326.734 83.318 C 325.708 82.182,325.398 81.927,325.398 82.217 M85.653 85.942 L 82.287 89.410 85.754 86.043 C 88.975 82.917,89.393 82.474,89.121 82.474 C 89.065 82.474,87.504 84.035,85.653 85.942 M71.766 84.817 L 70.665 86.036 71.884 84.935 C 73.019 83.908,73.274 83.599,72.985 83.599 C 72.920 83.599,72.372 84.147,71.766 84.817 M317.901 90.089 C 317.901 90.154,318.449 90.702,319.119 91.308 L 320.337 92.409 319.236 91.190 C 318.210 90.055,317.901 89.800,317.901 90.089 M192.600 114.230 C 193.067 114.319,193.742 114.316,194.100 114.222 C 194.458 114.128,194.077 114.055,193.252 114.059 C 192.427 114.063,192.134 114.140,192.600 114.230 M206.096 114.230 C 206.563 114.319,207.237 114.316,207.596 114.222 C 207.954 114.128,207.573 114.055,206.748 114.059 C 205.923 114.063,205.630 114.140,206.096 114.230 M194.100 125.101 C 194.566 125.191,195.241 125.187,195.599 125.094 C 195.958 125.000,195.576 124.926,194.752 124.931 C 193.927 124.935,193.634 125.011,194.100 125.101 M204.222 125.101 C 204.688 125.191,205.363 125.187,205.721 125.094 C 206.080 125.000,205.698 124.926,204.873 124.931 C 204.049 124.935,203.755 125.011,204.222 125.101 M138.885 139.175 L 135.895 142.268 138.988 139.278 C 140.689 137.633,142.081 136.241,142.081 136.185 C 142.081 135.912,141.663 136.303,138.885 139.175 M260.731 139.082 C 261.536 139.906,262.280 140.581,262.383 140.581 C 262.486 140.581,261.911 139.906,261.106 139.082 C 260.301 138.257,259.557 137.582,259.454 137.582 C 259.351 137.582,259.926 138.257,260.731 139.082 M252.858 146.954 C 254.291 148.397,255.547 149.578,255.650 149.578 C 255.753 149.578,254.666 148.397,253.233 146.954 C 251.801 145.511,250.545 144.330,250.442 144.330 C 250.339 144.330,251.426 145.511,252.858 146.954 M39.075 185.942 C 39.075 186.664,39.152 186.959,39.246 186.598 C 39.341 186.237,39.341 185.647,39.246 185.286 C 39.152 184.925,39.075 185.220,39.075 185.942 M28.203 186.317 C 28.203 187.038,28.280 187.334,28.375 186.973 C 28.469 186.612,28.469 186.022,28.375 185.661 C 28.280 185.300,28.203 185.595,28.203 186.317 M360.724 187.441 C 360.724 188.163,360.801 188.458,360.896 188.097 C 360.990 187.737,360.990 187.146,360.896 186.785 C 360.801 186.425,360.724 186.720,360.724 187.441 M371.603 188.004 C 371.608 188.828,371.684 189.122,371.774 188.655 C 371.864 188.189,371.860 187.514,371.766 187.156 C 371.673 186.797,371.599 187.179,371.603 188.004 M38.720 191.378 C 38.723 192.409,38.796 192.786,38.882 192.216 C 38.968 191.646,38.966 190.803,38.877 190.342 C 38.788 189.881,38.717 190.347,38.720 191.378 M27.864 192.877 C 27.866 194.321,27.934 194.865,28.015 194.087 C 28.096 193.309,28.095 192.129,28.012 191.463 C 27.929 190.798,27.863 191.434,27.864 192.877 M114.059 193.252 C 114.063 194.077,114.140 194.370,114.230 193.904 C 114.319 193.437,114.316 192.763,114.222 192.404 C 114.128 192.046,114.055 192.427,114.059 193.252 M361.143 194.939 C 361.143 196.692,361.208 197.409,361.287 196.532 C 361.366 195.656,361.366 194.222,361.287 193.346 C 361.208 192.470,361.143 193.187,361.143 194.939 M124.931 194.752 C 124.935 195.576,125.011 195.870,125.101 195.403 C 125.191 194.937,125.187 194.262,125.094 193.904 C 125.000 193.545,124.926 193.927,124.931 194.752 M285.763 194.939 C 285.763 195.867,285.836 196.246,285.925 195.783 C 286.015 195.319,286.015 194.560,285.925 194.096 C 285.836 193.632,285.763 194.011,285.763 194.939 M372.039 200.000 C 372.039 203.711,372.095 205.179,372.163 203.261 C 372.232 201.344,372.231 198.307,372.163 196.513 C 372.094 194.720,372.038 196.289,372.039 200.000 M274.935 200.000 C 274.935 202.680,274.995 203.728,275.067 202.327 C 275.140 200.927,275.139 198.734,275.066 197.454 C 274.993 196.174,274.934 197.320,274.935 200.000 M220.163 200.000 C 220.166 201.031,220.239 201.408,220.325 200.838 C 220.411 200.268,220.409 199.425,220.320 198.964 C 220.231 198.503,220.161 198.969,220.163 200.000 M361.143 205.061 C 361.143 206.813,361.208 207.530,361.287 206.654 C 361.366 205.778,361.366 204.344,361.287 203.468 C 361.208 202.591,361.143 203.308,361.143 205.061 M124.931 204.873 C 124.935 205.698,125.011 205.991,125.101 205.525 C 125.191 205.059,125.187 204.384,125.094 204.026 C 125.000 203.667,124.926 204.049,124.931 204.873 M27.861 206.935 C 27.861 208.276,27.929 208.824,28.013 208.154 C 28.096 207.484,28.096 206.387,28.013 205.717 C 27.929 205.047,27.861 205.595,27.861 206.935 M38.715 208.060 C 38.715 208.988,38.788 209.367,38.878 208.903 C 38.967 208.440,38.967 207.680,38.878 207.216 C 38.788 206.753,38.715 207.132,38.715 208.060 M285.373 209.560 C 285.373 210.281,285.450 210.576,285.544 210.216 C 285.639 209.855,285.639 209.264,285.544 208.903 C 285.450 208.543,285.373 208.838,285.373 209.560 M371.611 211.809 C 371.611 212.737,371.684 213.116,371.773 212.652 C 371.863 212.188,371.863 211.429,371.773 210.965 C 371.684 210.501,371.611 210.881,371.611 211.809 M28.203 213.683 C 28.203 214.405,28.280 214.700,28.375 214.339 C 28.469 213.978,28.469 213.388,28.375 213.027 C 28.280 212.666,28.203 212.962,28.203 213.683 M214.038 214.339 L 212.746 215.745 214.152 214.453 C 215.460 213.251,215.730 212.933,215.444 212.933 C 215.381 212.933,214.748 213.566,214.038 214.339 M199.162 220.325 C 199.732 220.411,200.575 220.409,201.036 220.320 C 201.497 220.231,201.031 220.161,200.000 220.163 C 198.969 220.166,198.592 220.239,199.162 220.325 M198.219 231.202 C 199.096 231.281,200.530 231.281,201.406 231.202 C 202.282 231.123,201.565 231.059,199.813 231.059 C 198.060 231.059,197.343 231.123,198.219 231.202 M146.767 253.046 C 148.199 254.489,149.455 255.670,149.558 255.670 C 149.661 255.670,148.574 254.489,147.142 253.046 C 145.709 251.603,144.453 250.422,144.350 250.422 C 144.247 250.422,145.334 251.603,146.767 253.046 M138.894 260.918 C 139.699 261.743,140.443 262.418,140.546 262.418 C 140.649 262.418,140.074 261.743,139.269 260.918 C 138.464 260.094,137.720 259.419,137.617 259.419 C 137.514 259.419,138.089 260.094,138.894 260.918 M197.844 263.069 C 198.927 263.145,200.698 263.145,201.781 263.069 C 202.863 262.994,201.978 262.932,199.813 262.932 C 197.648 262.932,196.762 262.994,197.844 263.069 M53.635 268.229 C 53.635 268.435,53.876 269.025,54.171 269.541 C 54.465 270.056,54.706 270.309,54.706 270.103 C 54.706 269.897,54.465 269.306,54.171 268.791 C 53.876 268.276,53.635 268.022,53.635 268.229 M56.795 274.789 C 57.115 275.408,57.461 275.914,57.564 275.914 C 57.667 275.914,57.490 275.408,57.170 274.789 C 56.850 274.171,56.504 273.664,56.401 273.664 C 56.298 273.664,56.475 274.171,56.795 274.789 M197.673 275.067 C 199.073 275.140,201.266 275.139,202.546 275.066 C 203.826 274.993,202.680 274.934,200.000 274.935 C 197.320 274.935,196.272 274.995,197.673 275.067 M189.410 285.544 C 189.770 285.639,190.361 285.639,190.722 285.544 C 191.082 285.450,190.787 285.373,190.066 285.373 C 189.344 285.373,189.049 285.450,189.410 285.544 M208.903 285.544 C 209.264 285.639,209.855 285.639,210.216 285.544 C 210.576 285.450,210.281 285.373,209.560 285.373 C 208.838 285.373,208.543 285.450,208.903 285.544 M193.721 285.932 C 194.391 286.015,195.487 286.015,196.157 285.932 C 196.828 285.849,196.279 285.781,194.939 285.781 C 193.599 285.781,193.051 285.849,193.721 285.932 M203.843 285.932 C 204.513 286.015,205.609 286.015,206.279 285.932 C 206.949 285.849,206.401 285.781,205.061 285.781 C 203.721 285.781,203.172 285.849,203.843 285.932 M79.475 307.521 C 79.475 307.586,80.023 308.134,80.694 308.740 L 81.912 309.841 80.811 308.622 C 79.784 307.487,79.475 307.232,79.475 307.521 M317.151 310.590 C 316.240 311.518,315.580 312.277,315.683 312.277 C 315.786 312.277,316.615 311.518,317.526 310.590 C 318.436 309.663,319.097 308.903,318.994 308.903 C 318.891 308.903,318.061 309.663,317.151 310.590 M73.102 316.589 C 73.802 317.310,74.458 317.901,74.561 317.901 C 74.664 317.901,74.176 317.310,73.477 316.589 C 72.778 315.867,72.121 315.276,72.018 315.276 C 71.915 315.276,72.403 315.867,73.102 316.589 M310.403 317.338 C 309.492 318.266,308.832 319.025,308.935 319.025 C 309.038 319.025,309.867 318.266,310.778 317.338 C 311.688 316.410,312.349 315.651,312.246 315.651 C 312.143 315.651,311.314 316.410,310.403 317.338 M321.457 321.743 L 316.589 326.710 321.556 321.842 C 326.170 317.320,326.693 316.776,326.424 316.776 C 326.369 316.776,324.134 319.011,321.457 321.743 M89.972 318.018 C 89.972 318.082,90.520 318.631,91.190 319.236 L 92.409 320.337 91.308 319.119 C 90.281 317.983,89.972 317.728,89.972 318.018 M82.099 325.516 C 82.099 325.580,82.648 326.128,83.318 326.734 L 84.536 327.835 83.435 326.617 C 82.409 325.481,82.099 325.226,82.099 325.516 M179.663 360.146 C 180.023 360.240,180.614 360.240,180.975 360.146 C 181.336 360.052,181.040 359.975,180.319 359.975 C 179.597 359.975,179.302 360.052,179.663 360.146 M219.025 360.146 C 219.386 360.240,219.977 360.240,220.337 360.146 C 220.698 360.052,220.403 359.975,219.681 359.975 C 218.960 359.975,218.664 360.052,219.025 360.146 M183.037 360.521 C 183.397 360.615,183.988 360.615,184.349 360.521 C 184.709 360.427,184.414 360.349,183.693 360.349 C 182.971 360.349,182.676 360.427,183.037 360.521 M215.468 360.528 C 215.935 360.617,216.609 360.614,216.968 360.520 C 217.326 360.426,216.945 360.353,216.120 360.357 C 215.295 360.361,215.002 360.438,215.468 360.528 M187.160 360.906 C 187.727 360.992,188.655 360.992,189.222 360.906 C 189.789 360.820,189.325 360.750,188.191 360.750 C 187.057 360.750,186.593 360.820,187.160 360.906 M210.778 360.906 C 211.345 360.992,212.273 360.992,212.840 360.906 C 213.407 360.820,212.943 360.750,211.809 360.750 C 210.675 360.750,210.211 360.820,210.778 360.906 M195.762 361.292 C 197.967 361.358,201.678 361.358,204.009 361.292 C 206.340 361.226,204.536 361.172,200.000 361.172 C 195.464 361.172,193.557 361.226,195.762 361.292 M182.662 371.392 C 183.022 371.487,183.613 371.487,183.974 371.392 C 184.335 371.298,184.039 371.221,183.318 371.221 C 182.596 371.221,182.301 371.298,182.662 371.392 M187.352 371.774 C 187.818 371.864,188.493 371.860,188.852 371.766 C 189.210 371.673,188.828 371.599,188.004 371.603 C 187.179 371.608,186.886 371.684,187.352 371.774 M210.965 371.773 C 211.429 371.863,212.188 371.863,212.652 371.773 C 213.116 371.684,212.737 371.611,211.809 371.611 C 210.881 371.611,210.501 371.684,210.965 371.773 M196.513 372.163 C 198.307 372.231,201.344 372.232,203.261 372.163 C 205.179 372.095,203.711 372.039,200.000 372.039 C 196.289 372.038,194.720 372.094,196.513 372.163 " stroke="none" fill="#66798e" fill-rule="evenodd"></path><path id="path4" d="M313.964 85.848 C 315.397 87.291,316.653 88.472,316.756 88.472 C 316.859 88.472,315.772 87.291,314.339 85.848 C 312.907 84.405,311.651 83.224,311.548 83.224 C 311.445 83.224,312.532 84.405,313.964 85.848 M107.779 197.226 C 91.560 199.414,76.322 201.932,61.293 204.907 C 51.787 206.789,39.287 209.510,39.048 209.750 C 38.963 209.834,39.107 212.145,39.367 214.886 C 39.627 217.626,39.845 220.058,39.851 220.290 C 39.859 220.588,40.526 220.553,42.143 220.169 C 60.855 215.729,94.344 209.730,110.028 208.009 L 114.152 207.557 114.039 201.998 C 113.958 197.959,113.804 196.449,113.477 196.478 C 113.230 196.500,110.665 196.837,107.779 197.226 M285.979 201.483 C 285.948 204.275,285.906 206.771,285.886 207.029 C 285.861 207.332,286.705 207.598,288.285 207.785 C 307.020 209.997,356.768 218.986,359.582 220.667 C 359.724 220.751,359.937 220.100,360.057 219.220 C 360.344 217.114,360.991 209.786,360.897 209.700 C 360.708 209.525,342.720 205.683,335.895 204.359 C 324.736 202.196,309.391 199.661,298.219 198.135 C 292.858 197.403,287.924 196.714,287.254 196.604 L 286.036 196.405 285.979 201.483 M252.847 253.140 L 250.609 255.483 252.952 253.245 C 254.241 252.014,255.295 250.960,255.295 250.902 C 255.295 250.625,254.925 250.963,252.847 253.140 M260.533 260.825 L 258.107 263.355 260.637 260.929 C 262.029 259.595,263.168 258.456,263.168 258.399 C 263.168 258.123,262.786 258.474,260.533 260.825 M85.661 314.152 C 87.093 315.595,88.349 316.776,88.452 316.776 C 88.555 316.776,87.468 315.595,86.036 314.152 C 84.603 312.709,83.347 311.528,83.244 311.528 C 83.141 311.528,84.228 312.709,85.661 314.152 " stroke="none" fill="#6db1d8" fill-rule="evenodd"></path></g></svg>